HIERARCHY
ROOT Hips
{
	OFFSET 0.000000 0.000000 0.000000
	CHANNELS 6 Xposition Yposition Zposition Zrotation Yrotation Xrotation 
	JOINT LHipJoint
	{
		OFFSET 0.000000 0.000000 0.000000
		CHANNELS 3 Zrotation Yrotation Xrotation
		JOINT LeftUpLeg
		{
			OFFSET 1.363060 -1.794630 0.839290
			CHANNELS 3 Zrotation Yrotation Xrotation
			JOINT LeftLeg
			{
				OFFSET 2.448110 -6.726130 0.000000
				CHANNELS 3 Zrotation Yrotation Xrotation
				JOINT LeftFoot
				{
					OFFSET 2.562200 -7.039590 0.000000
					CHANNELS 3 Zrotation Yrotation Xrotation
					JOINT LeftToeBase
					{
						OFFSET 0.157640 -0.433110 2.322550
						CHANNELS 3 Zrotation Yrotation Xrotation
						End Site
						{
							OFFSET 0.000000 0.000000 0.000000
						}
					}
				}
			}
		}
	}
	JOINT RHipJoint
	{
		OFFSET 0.000000 0.000000 0.000000
		CHANNELS 3 Zrotation Yrotation Xrotation
		JOINT RightUpLeg
		{
			OFFSET -1.305520 -1.794630 0.839290
			CHANNELS 3 Zrotation Yrotation Xrotation
			JOINT RightLeg
			{
				OFFSET -2.542530 -6.985550 0.000000
				CHANNELS 3 Zrotation Yrotation Xrotation
				JOINT RightFoot
				{
					OFFSET -2.568260 -7.056230 0.000000
					CHANNELS 3 Zrotation Yrotation Xrotation
					JOINT RightToeBase
					{
						OFFSET -0.164730 -0.452590 2.363150
						CHANNELS 3 Zrotation Yrotation Xrotation
						End Site
						{
							OFFSET 0.000000 0.000000 0.000000
						}
					}
				}
			}
		}
	}
	JOINT LowerBack
	{
		OFFSET 0.000000 0.000000 0.000000
		CHANNELS 3 Zrotation Yrotation Xrotation
		JOINT Spine
		{
			OFFSET 0.028270 2.035590 -0.193380
			CHANNELS 3 Zrotation Yrotation Xrotation
			JOINT Spine1
			{
				OFFSET 0.056720 2.048850 -0.042750
				CHANNELS 3 Zrotation Yrotation Xrotation
				JOINT Neck
				{
					OFFSET 0.000000 0.000000 0.000000
					CHANNELS 3 Zrotation Yrotation Xrotation
					JOINT Neck1
					{
						OFFSET -0.054170 1.746240 0.172020
						CHANNELS 3 Zrotation Yrotation Xrotation
						JOINT Head
						{
							OFFSET 0.104070 1.761360 -0.123970
							CHANNELS 3 Zrotation Yrotation Xrotation
							End Site
							{
								OFFSET 0.000000 0.000000 0.000000
							}
						}
					}
				}
				JOINT LeftShoulder
				{
					OFFSET 0.000000 0.000000 0.000000
					CHANNELS 3 Zrotation Yrotation Xrotation
					JOINT LeftArm
					{
						OFFSET 3.362410 1.200890 -0.311210
						CHANNELS 3 Zrotation Yrotation Xrotation
						JOINT LeftForeArm
						{
							OFFSET 4.983000 -0.000000 -0.000000
							CHANNELS 3 Zrotation Yrotation Xrotation
							JOINT LeftHand
							{
								OFFSET 3.483560 -0.000000 -0.000000
								CHANNELS 3 Zrotation Yrotation Xrotation
								JOINT LeftFingerBase
								{
									OFFSET 0.000000 0.000000 0.000000
									CHANNELS 3 Zrotation Yrotation Xrotation
									JOINT LeftHandIndex1
									{
										OFFSET 0.715260 -0.000000 -0.000000
										CHANNELS 3 Zrotation Yrotation Xrotation
										End Site
										{
											OFFSET 0.000000 0.000000 0.000000
										}
									}
								}
								JOINT LThumb
								{
									OFFSET 0.000000 0.000000 0.000000
									CHANNELS 3 Zrotation Yrotation Xrotation
									End Site
									{
										OFFSET 0.000000 0.000000 0.000000
									}
								}
							}
						}
					}
				}
				JOINT RightShoulder
				{
					OFFSET 0.000000 0.000000 0.000000
					CHANNELS 3 Zrotation Yrotation Xrotation
					JOINT RightArm
					{
						OFFSET -3.136600 1.374050 -0.404650
						CHANNELS 3 Zrotation Yrotation Xrotation
						JOINT RightForeArm
						{
							OFFSET -5.241900 -0.000000 -0.000000
							CHANNELS 3 Zrotation Yrotation Xrotation
							JOINT RightHand
							{
								OFFSET -3.444170 -0.000000 -0.000000
								CHANNELS 3 Zrotation Yrotation Xrotation
								JOINT RightFingerBase
								{
									OFFSET 0.000000 0.000000 0.000000
									CHANNELS 3 Zrotation Yrotation Xrotation
									JOINT RightHandIndex1
									{
										OFFSET -0.622530 -0.000000 -0.000000
										CHANNELS 3 Zrotation Yrotation Xrotation
										End Site
										{
											OFFSET 0.000000 0.000000 0.000000
										}
									}
								}
								JOINT RThumb
								{
									OFFSET 0.000000 0.000000 0.000000
									CHANNELS 3 Zrotation Yrotation Xrotation
									End Site
									{
										OFFSET 0.000000 0.000000 0.000000
									}
								}
							}
						}
					}
				}
			}
		}
	}
}
MOTION
Frames: 11
Frame Time: 0.008333
2.335936 17.023168 -1.179408 138.423782 -82.245113 -132.996899 -10.438493 -0.333364 -0.588639 -3.193263 -2.705328 -26.386313 0.664815 2.142977 46.659010 3.710097 25.881260 13.808344 9.355900 -0.000000 -53.811100 9.924986 0.092266 -1.348716 5.633665 2.297516 -14.873387 1.052788 -1.944397 30.257188 -2.471949 -9.810470 -13.392769 0.664100 0.000000 -56.831400 -1.798974 -1.891420 2.880628 -0.898026 -1.748723 -2.534700 -5.390157 -1.775530 -0.907744 7.489540 -10.915784 -6.679722 -2.352723 -0.193293 0.255824 0.000000 0.000000 0.000000 1.082780 5.233851 0.901692 -43.345045 16.939256 43.163792 -0.906185 -74.620958 -0.003430 -7.929133 -9.302124 0.657930 0.082912 0.077133 -0.000000 0.000000 0.000000 0.000000 0.000000 0.000000 0.000000 9.931362 -6.697695 0.706636 51.415613 -1.342585 37.187797 0.832718 68.199374 0.001369 -2.857722 4.541476 -0.119801 0.088067 -0.152812 0.000000 0.000000 0.000000 0.000000 0.000000 0.000000 0.000000 
2.364227 17.022803 -1.217803 137.328085 -82.070587 -132.127138 -10.423498 -0.470473 -0.533446 -3.241492 -3.442667 -27.691396 0.760599 2.238375 49.028310 3.750448 26.072048 15.147321 9.912900 0.000000 -51.890199 9.965878 0.135215 -1.414136 5.497949 2.248554 -14.688050 1.031617 -1.961573 30.332292 -2.465792 -9.792117 -13.416099 0.669400 0.000000 -56.776800 -1.868365 -1.893125 2.912357 -0.903722 -1.746179 -2.535645 -5.337517 -1.774210 -0.955492 7.355701 -10.841100 -6.615418 -2.333113 -0.192685 0.273358 0.000000 0.000000 0.000000 1.236812 4.998144 0.876277 -43.518029 17.268042 43.312237 -0.894991 -74.731315 -0.003904 -7.966505 -9.321172 0.662695 0.086483 0.078235 -0.000000 0.000000 0.000000 0.000000 0.000000 0.000000 0.000000 9.696852 -6.609579 0.734062 51.437952 -1.005308 37.132166 0.832867 68.117602 0.001255 -2.891550 4.526871 -0.120799 0.088734 -0.153919 0.000000 0.000000 0.000000 0.000000 0.000000 0.000000 0.000000 
2.393508 17.022927 -1.255009 136.097176 -81.904348 -131.120284 -10.402038 -0.612983 -0.493806 -3.332739 -4.110860 -29.060309 0.847204 2.337053 51.405490 3.785061 26.202899 16.178808 10.329000 -0.000000 -49.910700 10.014121 0.179472 -1.477686 5.337940 2.184392 -14.513168 1.008365 -1.978660 30.403049 -2.460255 -9.779627 -13.431039 0.673199 -0.000000 -56.719800 -1.952220 -1.895917 2.955552 -0.913186 -1.743842 -2.534519 -5.288751 -1.772935 -1.003405 7.234517 -10.773241 -6.555171 -2.315072 -0.192119 0.289542 0.000000 0.000000 0.000000 1.393861 4.758951 0.852305 -43.669380 17.569075 43.478350 -0.881763 -74.879060 -0.004383 -8.006751 -9.344532 0.668059 0.090281 0.079627 -0.000000 0.000000 0.000000 0.000000 0.000000 0.000000 0.000000 9.484594 -6.528168 0.763044 51.439663 -0.665801 37.065394 0.832765 68.055388 0.001138 -2.930965 4.516107 -0.122196 0.089513 -0.155187 0.000000 0.000000 0.000000 0.000000 0.000000 0.000000 0.000000 
2.423527 17.023646 -1.291039 134.765591 -81.744362 -130.009520 -10.375290 -0.758664 -0.471148 -3.468191 -4.694905 -30.496153 0.929088 2.441871 53.790479 3.813786 26.282597 16.862221 10.592600 -0.000000 -48.032400 10.069234 0.223991 -1.537339 5.156018 2.103674 -14.349798 0.983831 -1.994788 30.464028 -2.454041 -9.766222 -13.436466 0.674800 0.000000 -56.662000 -2.048762 -1.899624 3.007832 -0.926049 -1.741670 -2.531789 -5.244070 -1.771694 -1.051100 7.125508 -10.711198 -6.498236 -2.298879 -0.191632 0.304636 0.000000 0.000000 0.000000 1.551390 4.518297 0.829329 -43.798395 17.845778 43.655886 -0.866807 -75.059968 -0.004861 -8.046952 -9.370962 0.673722 0.094224 0.081251 -0.000000 0.000000 0.000000 0.000000 0.000000 0.000000 0.000000 9.295105 -6.452724 0.793220 51.422594 -0.323716 36.988566 0.832530 68.008615 0.001009 -2.974492 4.507921 -0.123792 0.090382 -0.156577 0.000000 0.000000 0.000000 0.000000 0.000000 0.000000 0.000000 
2.454023 17.025048 -1.325813 133.381661 -81.589666 -128.840498 -10.345502 -0.905516 -0.466544 -3.644969 -5.179756 -32.004915 1.010795 2.555861 56.187787 3.835166 26.305424 17.154137 10.684700 -0.000000 -46.165400 10.129144 0.267382 -1.590764 4.958753 2.008167 -14.198822 0.958819 -2.008807 30.508500 -2.446498 -9.748325 -13.430157 0.673800 -0.000000 -56.604500 -2.153215 -1.903995 3.066245 -0.941199 -1.739703 -2.527788 -5.202966 -1.770543 -1.097153 7.027116 -10.653922 -6.444690 -2.284490 -0.191221 0.318671 0.000000 0.000000 0.000000 1.707491 4.283167 0.807311 -43.908619 18.095288 43.838982 -0.850658 -75.264540 -0.005323 -8.083339 -9.399098 0.679184 0.098180 0.083072 -0.000000 0.000000 0.000000 0.000000 0.000000 0.000000 0.000000 9.126545 -6.382654 0.823786 51.388615 0.022613 36.903388 0.832223 67.972217 0.000878 -3.021150 4.501162 -0.125588 0.091319 -0.158041 0.000000 0.000000 0.000000 0.000000 0.000000 0.000000 0.000000 
2.484808 17.027286 -1.359410 131.963112 -81.437677 -127.628604 -10.312647 -1.053549 -0.477377 -3.862566 -5.569964 -33.583864 1.096198 2.678085 58.580987 3.852300 26.300948 17.097746 10.636500 0.000000 -44.770300 10.193408 0.309364 -1.637058 4.746683 1.896560 -14.061028 0.933749 -2.019902 30.530774 -2.436656 -9.720843 -13.410472 0.669600 -0.000001 -56.550601 -2.265166 -1.909290 3.126685 -0.958524 -1.738299 -2.523485 -5.165521 -1.769900 -1.142068 6.938366 -10.599696 -6.393098 -2.272086 -0.190929 0.332121 0.000000 0.000000 0.000000 1.858505 4.051170 0.785676 -43.999353 18.329036 44.018524 -0.833693 -75.489052 -0.005772 -8.114472 -9.426437 0.684147 0.102089 0.084989 -0.000000 0.000000 0.000000 0.000000 0.000000 0.000000 0.000000 8.978164 -6.316466 0.854726 51.341462 0.372488 36.811303 0.832054 67.940925 0.000741 -3.069550 4.494272 -0.127484 0.092313 -0.159536 0.000000 0.000000 0.000000 0.000000 0.000000 0.000000 0.000000 
2.515633 17.030453 -1.391830 130.541788 -81.287982 -126.402799 -10.277818 -1.202083 -0.502644 -4.116702 -5.863993 -35.235967 1.188042 2.809422 60.967854 3.863715 26.257163 16.690757 10.441600 -0.000000 -43.664900 10.260085 0.349112 -1.674636 4.525426 1.772969 -13.936755 0.908911 -2.027236 30.525593 -2.424755 -9.684706 -13.375450 0.661801 -0.000000 -56.501600 -2.381368 -1.915585 3.185906 -0.977186 -1.737742 -2.519280 -5.130986 -1.770071 -1.184723 6.857406 -10.547880 -6.343642 -2.261368 -0.190732 0.344988 0.000000 0.000000 0.000000 2.004101 3.826846 0.764464 -44.076002 18.546302 44.189087 -0.816480 -75.723055 -0.006192 -8.137467 -9.451519 0.688312 0.105834 0.086959 -0.000000 0.000000 0.000000 0.000000 0.000000 0.000000 0.000000 8.846669 -6.253929 0.885488 51.284901 0.727601 36.713808 0.832128 67.909089 0.000600 -3.118807 4.485799 -0.129379 0.093350 -0.161015 0.000000 0.000000 0.000000 0.000000 0.000000 0.000000 0.000000 
2.546429 17.034628 -1.423124 129.130920 -81.140103 -125.174559 -10.240919 -1.351676 -0.539710 -4.402850 -6.071527 -36.960758 1.287891 2.948963 63.337380 3.869336 26.171871 15.972997 10.114001 -0.000000 -42.852200 10.327845 0.386561 -1.702980 4.298226 1.641433 -13.826030 0.884190 -2.030345 30.489685 -2.411502 -9.643291 -13.323804 0.650400 0.000000 -56.458200 -2.500326 -1.923364 3.240988 -0.996758 -1.738637 -2.515679 -5.098869 -1.771689 -1.224929 6.783088 -10.497607 -6.296141 -2.252094 -0.190619 0.357366 0.000000 0.000000 0.000000 2.144313 3.610578 0.743737 -44.141859 18.750609 44.345932 -0.799459 -75.958940 -0.006578 -8.150699 -9.472800 0.691379 0.109338 0.088926 -0.000000 0.000000 0.000000 0.000000 0.000000 0.000000 0.000000 8.729533 -6.194422 0.915833 51.223615 1.087760 36.612231 0.832538 67.872491 0.000455 -3.168331 4.474275 -0.131075 0.094421 -0.162444 0.000000 0.000000 0.000000 0.000000 0.000000 0.000000 0.000000 
2.576968 17.039897 -1.453369 127.735245 -80.994585 -123.944203 -10.201182 -1.503090 -0.585262 -4.715907 -6.207714 -38.756386 1.396231 3.095180 65.676742 3.868782 26.039261 14.998722 9.672400 0.000000 -42.301700 10.395596 0.421710 -1.721839 4.068180 1.507475 -13.728394 0.859219 -2.028989 30.421199 -2.398218 -9.603034 -13.254833 0.635500 0.000000 -56.419400 -2.621402 -1.933288 3.289183 -1.016995 -1.741721 -2.513093 -5.068742 -1.775516 -1.262299 6.714518 -10.448826 -6.250688 -2.243852 -0.190559 0.369267 0.000000 0.000000 0.000000 2.280012 3.402240 0.723611 -44.199844 18.944908 44.486364 -0.782978 -76.190951 -0.006925 -8.153423 -9.489416 0.693150 0.112546 0.090853 -0.000000 0.000000 0.000000 0.000000 0.000000 0.000000 0.000000 8.623770 -6.138316 0.945645 51.162771 1.452351 36.507873 0.833409 67.827858 0.000312 -3.217327 4.458729 -0.132670 0.095519 -0.163795 0.000000 0.000000 0.000000 0.000000 0.000000 0.000000 0.000000 
2.607355 17.046202 -1.482690 126.343972 -80.852082 -122.701545 -10.157096 -1.657715 -0.636146 -5.051032 -6.292195 -40.620151 1.512709 3.246268 67.973527 3.861683 25.854424 13.834753 9.141500 -0.000000 -41.988800 10.462951 0.455387 -1.732195 3.836848 1.376025 -13.643236 0.833372 -2.023543 30.322394 -2.386482 -9.571831 -13.169363 0.617500 -0.000000 -56.382100 -2.745185 -1.946252 3.329712 -1.037956 -1.747874 -2.511718 -5.040438 -1.782442 -1.297378 6.651272 -10.402051 -6.207286 -2.236294 -0.190529 0.380707 0.000000 0.000000 0.000000 2.411548 3.198512 0.704154 -44.250225 19.133997 44.609495 -0.767158 -76.417428 -0.007234 -8.146335 -9.500204 0.693721 0.115464 0.092701 -0.000000 0.000000 0.000000 0.000000 0.000000 0.000000 0.000000 8.527181 -6.086231 0.975108 51.106918 1.820190 36.401569 0.834810 67.773455 0.000165 -3.265693 4.438274 -0.134165 0.096648 -0.165057 0.000000 0.000000 0.000000 0.000000 0.000000 0.000000 0.000000 
2.637554 17.053495 -1.511155 124.947695 -80.714408 -121.435143 -10.107138 -1.816767 -0.689641 -5.402065 -6.344623 -42.548887 1.636672 3.400649 70.218138 3.847150 25.609021 12.546243 8.545800 0.000000 -41.830600 10.529426 0.488252 -1.735265 3.606770 1.253613 -13.568530 0.805992 -2.014504 30.195895 -2.378254 -9.559501 -13.068271 0.597000 -0.000001 -56.341800 -2.872094 -1.962986 3.362920 -1.059620 -1.757807 -2.511215 -5.013495 -1.793160 -1.329426 6.593391 -10.357725 -6.167050 -2.228853 -0.190467 0.391350 0.000000 0.000000 0.000000 2.543913 3.001316 0.686171 -44.296832 19.311231 44.720287 -0.752192 -76.632804 -0.007500 -8.129360 -9.506634 0.693098 0.118063 0.094501 -0.000000 0.000000 0.000000 0.000000 0.000000 0.000000 0.000000 8.437245 -6.038883 1.003911 51.060491 2.189521 36.293471 0.836655 67.710039 0.000016 -3.312748 4.412705 -0.135361 0.097785 -0.166230 0.000000 0.000000 0.000000 0.000000 0.000000 0.000000 0.000000 
